<svg id="Layer_1" data-name="Layer 1" xmlns="http://www.w3.org/2000/svg" width="11" height="16" viewBox="0 0 11 16"><title>Artboard 1</title><path d="M5.5,15.79a.39.39,0,0,1-.37-.24.36.36,0,0,1,0-.13A7.49,7.49,0,0,0,2.9,10.31c-.37-.44-.79-.94-1.27-1.57L1.4,8.42a5,5,0,0,1-1-3.08,5.13,5.13,0,1,1,10.27,0,5.08,5.08,0,0,1-1,3.08l-.24.32h0c-.48.63-.9,1.13-1.27,1.57a7.46,7.46,0,0,0-2.21,5.08A.39.39,0,0,1,5.5,15.79ZM5.5,3a2,2,0,1,0,2,2A2,2,0,0,0,5.5,3Z" style="fill:#333331"/><rect width="11" height="16" style="fill:none"/></svg>
